<?xml version="1.0" encoding="UTF-8"?>
<svg width="40" height="40" viewBox="0 0 40 40" fill="none" xmlns="http://www.w3.org/2000/svg">
    <!-- Fundo do avatar -->
    <circle cx="20" cy="20" r="20" fill="#1B2F6B"/>
    
    <!-- Ícone de usuário estilizado -->
    <path d="M20 11C18.067 11 16.5 12.567 16.5 14.5C16.5 16.433 18.067 18 20 18C21.933 18 23.5 16.433 23.5 14.5C23.5 12.567 21.933 11 20 11ZM20 19.75C17.25 19.75 11.75 21.133 11.75 23.875V25.625C11.75 26.0392 12.0858 26.375 12.5 26.375H27.5C27.9142 26.375 28.25 26.0392 28.25 25.625V23.875C28.25 21.133 22.75 19.75 20 19.75Z" fill="white"/>
    
    <!-- Detalhe decorativo -->
    <path d="M32 20C32 26.6274 26.6274 32 20 32C13.3726 32 8 26.6274 8 20" stroke="#E31837" stroke-width="2" stroke-linecap="round"/>
</svg> 